# xmcd
#
# Track frame offsets:
#	150
#	14690
#	27907
#	42227
#	55600
#	68667
#	79432
#	93202
#	106362
#	119030
#
# Disc length: 1760 seconds
#
# Revision: 1
# Processed by: cddbd v1.5.2PL0 Copyright (c) Steve Scherf et al.
# Submitted via: audiograbber 1.83.01
#
DISCID=8106de0a
DTITLE=Chuck Willis - The Real Story
DYEAR=1952
DGENRE=Blues
TTITLE0=My Story
TTITLE1=Need One More Chance
TTITLE2=You're Still My Baby
TTITLE3=Going To The River
TTITLE4=Change My Mind
TTITLE5=Caldonia (What Makes Your Big Head So Hard?)
TTITLE6=Don't Deceive Me (Please Don't Go)
TTITLE7=I Feel So Bad
TTITLE8=I Rule My House
TTITLE9=Two Spoons Of Tears
EXTD=
EXTT0=
EXTT1=
EXTT2=
EXTT3=
EXTT4=
EXTT5=
EXTT6=
EXTT7=
EXTT8=
EXTT9=
PLAYORDER=
